HIERARCHY
ROOT Hips
{
	OFFSET 0.00 0.00 0.00
	CHANNELS 6 Xposition Yposition Zposition Xrotation Yrotation Zrotation
	JOINT LeftUpLeg
	{
		OFFSET 3.34807 0.00000 0.00000
		CHANNELS 3 Xrotation Yrotation Zrotation
		JOINT LeftLeg
		{
			OFFSET 0.00000 -16.98552 0.00000
			CHANNELS 3 Xrotation Yrotation Zrotation
			JOINT LeftFoot
			{
				OFFSET 0.00000 -16.83686 0.00000
				CHANNELS 3 Xrotation Yrotation Zrotation
				JOINT LeftToeBase
				{
					OFFSET 0.00000 -1.59599 5.95633
					CHANNELS 3 Xrotation Yrotation Zrotation
					End Site
					{
						OFFSET 0.00000 0.00000 2.95275
					}
				}
			}
		}
	}
	JOINT RightUpLeg
	{
		OFFSET -3.34807 0.00000 0.00000
		CHANNELS 3 Xrotation Yrotation Zrotation
		JOINT RightLeg
		{
			OFFSET 0.00000 -16.98552 0.00000
			CHANNELS 3 Xrotation Yrotation Zrotation
			JOINT RightFoot
			{
				OFFSET 0.00000 -16.83686 0.00000
				CHANNELS 3 Xrotation Yrotation Zrotation
				JOINT RightToeBase
				{
					OFFSET 0.00000 -1.59599 5.95633
					CHANNELS 3 Xrotation Yrotation Zrotation
					End Site
					{
						OFFSET 0.00000 0.00000 2.95275
					}
				}
			}
		}
	}
	JOINT Spine
	{
		OFFSET 0.00000 0.03937 0.00000
		CHANNELS 3 Xrotation Yrotation Zrotation
		JOINT Spine1
		{
			OFFSET 0.00000 7.93124 0.00000
			CHANNELS 3 Xrotation Yrotation Zrotation
			JOINT Neck
			{
				OFFSET 0.00000 8.48368 0.00000
				CHANNELS 3 Xrotation Yrotation Zrotation
				JOINT Head
				{
					OFFSET 0.00000 6.65077 0.00000
					CHANNELS 3 Xrotation Yrotation Zrotation
					End Site
					{
						OFFSET 0.00000 4.52755 0.00000
					}
				}
			}
			JOINT LeftShoulder
			{
				OFFSET 0.00000 8.48368 0.00000
				CHANNELS 3 Xrotation Yrotation Zrotation
				JOINT LeftArm
				{
					OFFSET 7.74502 -0.00003 0.00000
					CHANNELS 3 Xrotation Yrotation Zrotation
					JOINT LeftForeArm
					{
						OFFSET 12.49824 -0.00005 0.00000
						CHANNELS 3 Xrotation Yrotation Zrotation
						JOINT LeftHand
						{
							OFFSET 9.88337 -0.00004 0.00000
							CHANNELS 3 Xrotation Yrotation Zrotation
							JOINT LeftHandThumb
							{
								OFFSET 0.00000 0.00000 0.00000
								CHANNELS 3 Xrotation Yrotation Zrotation
								End Site
								{
									OFFSET 0.00000 0.00000 3.93700
								}
							}
							JOINT L_Wrist_End
							{
								OFFSET 3.93700 -0.00001 0.00000
								CHANNELS 3 Xrotation Yrotation Zrotation
							}
						}
					}
				}
			}
			JOINT RightShoulder
			{
				OFFSET 0.00000 8.48368 0.00000
				CHANNELS 3 Xrotation Yrotation Zrotation
				JOINT RightArm
				{
					OFFSET -7.74502 -0.00003 0.00000
					CHANNELS 3 Xrotation Yrotation Zrotation
					JOINT RightForeArm
					{
						OFFSET -12.49824 -0.00005 0.00000
						CHANNELS 3 Xrotation Yrotation Zrotation
						JOINT RightHand
						{
							OFFSET -9.88337 -0.00004 0.00000
							CHANNELS 3 Xrotation Yrotation Zrotation
							JOINT RightHandThumb
							{
								OFFSET 0.00000 0.00000 0.00000
								CHANNELS 3 Xrotation Yrotation Zrotation
								End Site
								{
									OFFSET 0.00000 0.00000 3.93700
								}
							}
							JOINT R_Wrist_End
							{
								OFFSET -5.39369 -0.00002 0.00000
								CHANNELS 3 Xrotation Yrotation Zrotation
							}
						}
					}
				}
			}
		}
	}
}
MOTION
Frames: 11
Frame Time: 0.033332
 -35.7300 37.3717 -4.4079 -4.5896 78.7556 4.5871 3.5103 21.3202 1.3629 12.9045 0.0000 0.0000 6.1773 -13.2070 1.2601 -25.7541 -0.0000 -0.0000 -11.7475 -7.6683 -4.6122 50.3698 -0.0000 0.0000 8.1903 -13.5823 7.7004 -9.3873 0.0000 0.0000 -0.5169 -1.3818 -2.5116 12.4564 -6.0879 -2.2575 -8.8231 9.3919 1.9615 -6.7164 -6.5910 -0.2957 -11.1687 21.2446 25.2533 2.2659 -24.7450 -85.0516 -0.0002 -44.7874 -0.0001 -11.8475 -38.0847 29.2887 -0.0000 0.0000 -0.0000 -0.0000 0.0000 -0.0000 14.1063 -13.6339 -11.0731 -32.9503 36.2659 96.3112 -0.0000 11.9485 0.0000 78.8319 -77.3834 -115.4173 -0.0000 0.0000 -0.0000 -0.0000 0.0000 -0.0000
 -34.3844 37.4655 -4.3478 -3.9553 78.8389 3.8369 6.6817 22.0654 0.8383 10.5353 0.0000 0.0000 7.9500 -14.1497 1.2068 -27.8195 -0.0000 -0.0000 -14.9140 -7.1428 -3.1691 44.8696 -0.0000 0.0000 5.7357 -9.8986 6.5126 -9.5826 -0.0000 0.0000 -0.3126 -1.7724 -2.4752 12.2854 -6.3422 -1.9599 -8.9674 9.5286 2.1382 -5.9454 -6.5378 -0.3886 -11.7242 20.8072 25.5318 1.1368 -25.8118 -84.5259 -0.0002 -48.8953 -0.0001 -12.9029 -38.2364 28.7233 -0.0000 0.0000 -0.0000 -0.0000 0.0000 -0.0000 14.4503 -13.9236 -10.9938 -32.4062 35.4487 96.2229 -0.0000 11.5348 0.0000 91.0391 -76.6352 -107.5338 -0.0000 0.0000 -0.0000 -0.0000 0.0000 -0.0000
 -33.0448 37.3135 -4.3055 -1.2834 78.5786 1.3495 9.5350 22.9237 -0.0217 8.7049 -0.0000 0.0000 7.8137 -14.9014 0.7265 -28.9354 0.0000 -0.0000 -17.8966 -5.9724 -2.1241 37.6015 -0.0000 0.0000 5.2466 -5.3351 6.5095 -10.1056 0.0000 0.0000 -0.5383 -1.9094 -2.3993 12.3764 -6.4877 -1.9401 -9.0466 9.6772 2.1697 -5.9999 -6.3961 -0.2579 -12.0903 20.4872 25.4508 -0.1363 -27.1630 -83.2945 -0.0003 -52.7835 -0.0001 -13.2332 -38.0191 28.3153 -0.0000 0.0000 -0.0000 -0.0000 0.0000 -0.0000 14.9122 -14.0480 -10.5658 -32.2538 34.5750 95.9725 -0.0000 10.9825 0.0000 98.5402 -75.7973 -103.1958 -0.0000 0.0000 -0.0000 -0.0000 0.0000 -0.0000
 -31.6929 36.9540 -4.2559 1.8937 78.2027 -1.3974 12.3582 24.2658 -1.0347 7.3149 0.0000 -0.0000 6.1605 -16.3864 -0.4384 -29.0356 0.0000 -0.0000 -20.3311 -4.1227 -1.3942 28.7723 -0.0000 0.0000 7.7666 -2.0710 6.2952 -10.6696 0.0000 0.0000 -0.7631 -1.8826 -2.4012 12.4247 -6.5162 -2.0565 -9.1177 9.7798 2.2533 -6.6269 -6.3478 -0.1212 -12.3990 20.0709 25.1416 -1.2427 -28.4201 -81.6516 -0.0003 -56.1750 -0.0002 -13.4811 -38.4006 28.0662 -0.0000 0.0000 -0.0000 -0.0000 0.0000 -0.0000 15.3180 -13.9693 -9.8272 -31.9020 33.8931 95.4258 -0.0000 10.2638 0.0000 97.8710 -77.8185 -103.3929 -0.0000 0.0000 -0.0000 -0.0000 0.0000 -0.0000
 -30.2848 36.4769 -4.1857 5.3127 78.1122 -4.2092 14.9637 25.2818 -2.0795 6.6193 -0.0000 0.0000 3.9242 -17.8688 -1.2346 -29.7178 0.0000 -0.0000 -22.0390 -2.2872 -1.0733 19.2179 0.0000 0.0000 13.0688 -1.0286 7.2519 -11.4107 -0.0000 -0.0000 -1.1320 -1.8371 -2.4585 12.6210 -6.5640 -2.2452 -9.4989 9.8085 2.5263 -7.1774 -6.4634 -0.0671 -12.6324 19.5990 24.9301 -2.5503 -29.5128 -80.3450 -0.0003 -58.4269 -0.0002 -13.1021 -38.5429 28.7135 -0.0000 -0.0000 0.0000 -0.0000 -0.0000 0.0000 15.8125 -13.8781 -9.0026 -31.8480 33.5929 94.9125 -0.0000 9.3273 0.0000 96.9658 -77.1520 -103.8192 -0.0000 0.0000 -0.0000 -0.0000 0.0000 -0.0000
 -28.7782 35.9810 -4.0554 9.2130 78.7762 -7.7164 16.7412 24.8408 -2.4021 7.1458 -0.0000 0.0000 1.6745 -18.1242 -2.2778 -29.8476 0.0000 -0.0000 -23.1632 -1.9380 -0.8541 11.3407 -0.0000 0.0000 16.0959 -1.2579 7.4531 -11.3772 -0.0000 0.0000 -1.6686 -1.9710 -2.4458 13.0103 -6.7002 -2.1487 -10.1433 9.7199 2.9614 -7.6331 -6.7821 -0.1360 -12.8464 19.0191 25.0303 -3.9794 -30.0111 -80.0098 -0.0004 -59.3390 -0.0002 -12.8614 -38.2826 28.2934 -0.0000 -0.0000 0.0000 -0.0000 -0.0000 0.0000 16.3463 -14.0661 -8.2475 -31.8701 32.8303 94.4317 -0.0000 8.5213 0.0000 96.3291 -77.5670 -104.9476 -0.0000 0.0000 -0.0000 -0.0000 0.0000 -0.0000
 -27.0983 35.5701 -3.7986 12.4281 80.0095 -11.0840 17.7783 24.4521 -1.3507 8.9986 -0.0000 0.0000 0.9293 -18.9671 -2.5602 -32.8006 0.0000 0.0000 -24.4330 -1.4399 -0.3652 9.0294 0.0000 0.0000 16.6548 -3.0560 13.4930 -12.5236 0.0000 -0.0000 -2.3025 -2.2645 -2.4498 13.5705 -6.7119 -1.3497 -10.5312 9.5103 3.3690 -8.2134 -7.2974 -0.3589 -12.7575 18.9630 25.0413 -5.4947 -30.6409 -80.3688 -0.0004 -59.0053 -0.0002 -12.6488 -37.4847 27.8255 -0.0000 0.0000 -0.0000 -0.0000 0.0000 -0.0000 16.9738 -14.3714 -7.5962 -31.7060 31.4992 93.8928 -0.0000 7.7105 0.0000 96.8661 -78.6010 -105.2257 -0.0000 0.0000 -0.0000 -0.0000 0.0000 -0.0000
 -25.1644 35.3197 -3.4020 11.7148 81.2116 -11.4511 18.7174 23.6085 0.9699 11.6061 0.0000 -0.0000 3.3045 -18.9842 -1.5224 -39.4578 -0.0000 0.0000 -25.2168 -4.4300 0.9424 13.3757 -0.0000 0.0000 18.5371 -3.3751 8.8902 -11.5125 0.0000 -0.0000 -2.8842 -2.6876 -2.3314 14.3934 -6.4347 0.4220 -10.9998 9.4566 3.7759 -8.2333 -7.5831 -1.0298 -12.8185 18.8751 25.1181 -5.2350 -30.2684 -81.4057 -0.0003 -58.1197 -0.0002 -12.3406 -36.6059 27.0891 -0.0000 -0.0000 0.0000 -0.0000 -0.0000 0.0000 17.4772 -14.5996 -7.1501 -31.3117 30.6539 93.3061 -0.0000 6.4344 0.0000 97.0806 -78.0301 -104.6108 -0.0000 0.0000 -0.0000 -0.0000 0.0000 -0.0000
 -23.0082 35.1715 -2.9278 8.0840 82.7643 -8.5779 18.9639 21.5424 3.4288 16.1510 0.0000 -0.0000 9.0494 -17.8463 0.7952 -47.7593 0.0000 0.0000 -24.8073 -7.3743 1.5793 22.1207 0.0000 0.0000 8.6001 -4.5820 1.0458 -10.4005 -0.0000 0.0000 -3.2265 -3.3669 -2.3958 14.4790 -6.5223 1.9659 -10.8156 9.8350 4.0759 -8.2447 -7.6751 -1.6580 -12.3550 19.4361 25.4865 -3.7827 -30.3217 -82.4875 -0.0003 -56.8696 -0.0002 -12.5590 -36.4245 27.1108 -0.0000 0.0000 -0.0000 -0.0000 0.0000 -0.0000 17.7062 -14.7236 -7.2379 -30.2419 29.6679 93.0811 -0.0000 5.3922 0.0000 96.4630 -77.6803 -104.7664 -0.0000 0.0000 -0.0000 -0.0000 0.0000 -0.0000
 -20.7738 35.1079 -2.4130 -0.4350 84.9196 -1.4904 17.0348 18.9706 7.3434 24.2678 0.0000 -0.0000 15.8347 -16.0297 1.9460 -51.4642 0.0000 -0.0000 -22.1357 -6.9599 2.8431 27.3531 0.0000 0.0000 0.8074 -7.1763 1.5944 -8.2342 0.0000 0.0000 -3.2726 -4.1186 -1.8463 14.4260 -6.7444 3.5980 -10.6139 9.8297 4.1428 -8.0400 -7.7754 -2.2677 -12.0051 19.8427 25.8375 -1.3907 -31.2809 -83.1790 -0.0003 -55.4476 -0.0002 -13.0543 -35.9641 26.8960 -0.0000 -0.0000 0.0000 -0.0000 -0.0000 0.0000 18.0239 -14.9383 -7.6171 -28.8512 27.8836 92.9747 -0.0000 5.1720 0.0000 95.4720 -77.6212 -105.7350 -0.0000 0.0000 -0.0000 -0.0000 0.0000 -0.0000
 -18.6528 35.1014 -2.0380 -12.7943 86.4008 9.7888 13.5507 16.5282 10.4876 34.7259 -0.0000 0.0000 21.0032 -12.9265 0.2657 -41.2579 0.0000 0.0000 -18.2669 -8.9554 3.2678 29.2884 -0.0000 0.0000 -4.2682 -5.7391 2.5086 -8.8557 -0.0000 0.0000 -3.3085 -4.0480 -0.5773 14.2782 -6.7197 4.0155 -9.9479 9.5707 4.0614 -9.3527 -8.1694 -3.1090 -11.5882 20.4099 25.7892 0.9928 -33.8157 -82.7280 -0.0003 -54.6245 -0.0002 -13.4838 -34.7143 26.2066 -0.0000 0.0000 -0.0000 -0.0000 0.0000 -0.0000 17.9817 -15.0405 -8.1216 -27.1639 26.1998 93.0754 -0.0000 5.6171 0.0000 91.8498 -77.3236 -107.9648 -0.0000 0.0000 -0.0000 -0.0000 0.0000 -0.0000
